<svg height="512" viewBox="0 0 512 512" width="512" xmlns="http://www.w3.org/2000/svg"><g><path d="m491.281 277.475a19.174 19.174 0 0 1 -8.974 2.128 29.026 29.026 0 0 1 -11.993-2.857c-8.876-4.048-14.364-9.407-19.671-14.591a84.573 84.573 0 0 0 -11.342-9.8 31.044 31.044 0 0 0 -17.543-5.552c-14.463 0-29.834 11.163-29.834 31.851v108.246a23.639 23.639 0 0 1 -47.278 0v-103.29c0-9.892-8.178-17.641-18.619-17.641a24.519 24.519 0 0 0 -13.266 4.209c-5.285 3.435-9.206 8.893-13 14.172-5.959 8.3-11.588 16.13-21.93 16.13-16.182 0-18.859-9.912-21.887-26.085a113.186 113.186 0 0 0 -3.452-14.744c-4.182-12.627-15.184-20.47-28.715-20.47-14.9 0-30.311 9.988-30.311 26.7v50.709a19.754 19.754 0 0 1 -39.507 0v-50.706c0-14.053-10.069-28.233-32.563-28.233a59.362 59.362 0 0 0 -8.618.66c-14.572 2.144-27.469 9.117-38.848 15.268-11.453 6.192-22.27 12.039-32.776 12.039-7.831 0-15.209-3.307-22.553-10.112a18.434 18.434 0 0 1 -2.316-2.625v165.312c.002 16.462 12.936 29.807 28.89 29.807h421.23a28.893 28.893 0 0 0 27.645-21.212 55.816 55.816 0 0 0 1.955-15.308c0-30.989-20.139-37.875-20.139-37.875s20.139-7.278 20.139-34.8-20.005-36.399-20.005-36.399a49.353 49.353 0 0 0 15.281-24.931z" fill="#a56e2d"/><g fill="#915a19"><path d="m486.6 381.692a27.471 27.471 0 0 0 -10.733-8.087 30.013 30.013 0 0 0 11-8.086h-470.58v16.173z"/><path d="m482.572 295.394h-466.285v16.173h470.79a33.534 33.534 0 0 0 -11.077-9.161 44.454 44.454 0 0 0 6.572-7.012z"/></g><path d="m394.924 278.653c0-24.65 24.5-36.248 42.684-23.823 10.7 7.315 16.226 17.7 31.462 24.646 22.947 10.463 39.169-7.113 33.948-26.335-9.7-35.713-246.739-171.716-276.827-184.822-20.907-9.106-33.447-3.206-54.731 12.008-23.254 16.622-142.269 108.573-155.484 127.116-10.325 14.487-11.14 39.4.587 50.263 32.362 29.983 57.839-10.715 96.654-16.428 24.787-3.648 37.744 9.164 37.744 24.606v50.709a22.74 22.74 0 0 0 22.753 22.726 22.74 22.74 0 0 0 22.754-22.726v-50.709c0-26.272 43.546-34.374 53.177-5.289 6.245 18.856 2.373 42.885 28.188 42.885 19.009 0 23.729-22.446 36.563-30.786 13.745-8.932 27.25-.41 27.25 10.917v103.289a26.64 26.64 0 0 0 26.639 26.64 26.64 26.64 0 0 0 26.639-26.64z" fill="#7d4605"/></g><path d="m501.557 283.708c9.052-7.689 12.57-20.215 9.181-32.691-1.76-6.481-7.117-26.2-134.251-105.578-64.995-40.579-131.581-77.722-147.1-84.482-25.74-11.208-42.172-1.751-62.578 12.835-22.955 16.408-142.997 108.844-157.348 128.98-5.978 8.388-9.426 19.728-9.461 31.11-.032 10.7 2.889 19.975 8.287 26.616v157.668c0 20.846 16.548 37.806 36.888 37.806h421.23a37.06 37.06 0 0 0 35.34-27.022 64.11 64.11 0 0 0 2.26-17.5c0-19.645-7.181-31.233-13.934-37.787 6.739-6.25 13.934-17.09 13.934-34.884 0-19.6-8.718-31.329-15.815-37.633a58.366 58.366 0 0 0 8.34-14.05 28.112 28.112 0 0 0 5.027-3.388zm-74.633 97.87h47.246c3.371 1.769 13.835 8.949 13.835 29.874a48.2 48.2 0 0 1 -1.65 13.12 21 21 0 0 1 -19.95 15.4h-421.23c-11.518 0-20.888-9.782-20.888-21.806v-36.588h286.72a8 8 0 1 0 0-16h-286.72v-54.125h94.674a8 8 0 1 0 0-16h-94.674v-22.753c19.82 9.457 38.259-.493 54.876-9.476 11.1-6 22.569-12.2 35.219-14.062 9.959-1.466 18.21.112 23.228 4.445a15.746 15.746 0 0 1 5.351 12.245v50.709a30.754 30.754 0 0 0 61.507 0v-50.705c0-8.906 7.808-14.151 15.548-15.4 7.817-1.265 18.281 1.289 22.035 12.625a104.852 104.852 0 0 1 3.083 13.309c1.128 6.027 2.427 12.96 5.335 19.062h-22a8 8 0 1 0 0 16h82.539a8 8 0 1 0 0-16h-5.771c1.216-1.591 2.361-3.183 3.46-4.713 3.346-4.657 6.507-9.057 10.059-11.365 4.047-2.631 8.179-3.158 11.336-1.444a6.45 6.45 0 0 1 3.555 5.653v103.286a34.639 34.639 0 1 0 69.278 0v-108.243c0-8.469 3.735-15.3 10.248-18.735 6.255-3.3 13.7-2.733 19.922 1.516a75.042 75.042 0 0 1 9.863 8.593c5.7 5.57 12.168 11.885 22.792 16.729a42.467 42.467 0 0 0 10.808 3.316 42.185 42.185 0 0 1 -4.8 5.41h-44.834a8 8 0 0 0 0 16h48.676c4.415 3.226 12.4 11.278 12.4 27.328 0 18.151-10.488 25.052-13.846 26.8h-47.23a8 8 0 0 0 0 16zm64.276-110.065c-4.5 3.819-11.352 4.057-18.81.656-8.082-3.685-13.022-8.51-18.252-13.619a88.659 88.659 0 0 0 -12.015-10.35 35.269 35.269 0 0 0 -36.419-2.456c-11.759 6.206-18.78 18.5-18.78 32.884v108.241a18.639 18.639 0 1 1 -37.278 0v-103.285a22.514 22.514 0 0 0 -11.923-19.715 24.261 24.261 0 0 0 -11.64-2.919 29.548 29.548 0 0 0 -16.046 5.009c-6.074 3.946-10.274 9.793-14.335 15.446-6.257 8.71-10.467 14.048-17.869 14.048-11.856 0-13.859-5.376-16.973-22.006a116.684 116.684 0 0 0 -3.62-15.395c-6.472-19.545-24.637-25.836-39.772-23.391-17.075 2.754-29 15.582-29 31.195v50.709a14.754 14.754 0 0 1 -29.507 0v-50.709a31.614 31.614 0 0 0 -10.894-24.356c-6.077-5.248-17.261-10.928-36.015-8.166-15.444 2.273-28.755 9.468-40.5 15.817-21.752 11.763-33.836 17.219-49.552 2.66-8.149-7.551-7.9-27.984.491-39.752 12.085-16.959 128.709-107.444 153.621-125.252 20.949-14.971 30.149-18.469 46.888-11.181 15.263 6.648 82.88 44.59 145.017 83.385 115.94 72.385 126.371 92.835 127.285 96.2 1.741 6.425.171 12.672-4.102 16.302z"/><path d="m390.781 202.5a63.489 63.489 0 0 1 -33.681-7.731c-2.073-1.137-4.123-2.409-6.293-3.756a82.519 82.519 0 0 0 -14.314-7.6c-11.567-4.373-25.261-4.21-41.861.5-4.567 1.3-9.06 2.809-13.4 4.273-7.49 2.524-14.564 4.907-21.805 6.193-5.619 1-7.945.219-8.909-.607-1.57-1.345-2.284-5.075-1.863-9.733.211-2.339.588-4.725.988-7.25a88.869 88.869 0 0 0 1.339-12.12c.214-9.874-2.908-18.186-8.792-23.4-5.377-4.767-12.081-6.159-17.32-6.839-19.484-2.533-40.525 1.5-60.849 11.669-16.164 8.086-31.685 19.7-48.846 36.539a8 8 0 0 0 11.207 11.419c15.934-15.639 30.169-26.331 44.8-33.647 17.465-8.736 35.319-12.233 51.631-10.113 2.97.385 6.651 1.068 8.767 2.945 2.242 1.988 3.517 6.131 3.409 11.082a75.337 75.337 0 0 1 -1.145 9.966c-.423 2.675-.861 5.441-1.121 8.315-.93 10.313 1.622 18.374 7.381 23.314 7.862 6.746 18.595 4.841 22.124 4.217 8.419-1.5 16.4-4.184 24.116-6.785 4.356-1.466 8.47-2.853 12.663-4.043 13.18-3.737 23.593-4.04 31.835-.924a69.466 69.466 0 0 1 11.54 6.228c2.251 1.4 4.58 2.841 7.024 4.183a79.416 79.416 0 0 0 38.252 9.782q1.95 0 3.908-.1a8 8 0 1 0 -.777-15.98z"/></svg>