<svg id="Glyph" height="512" viewBox="0 0 16 16" width="512" xmlns="http://www.w3.org/2000/svg"><path d="m1.73 9.2.03 4.63a1.6624 1.6624 0 0 0 1.65 1.67h9.18a1.6624 1.6624 0 0 0 1.65-1.67v-4.63h.03a1.2036 1.2036 0 0 0 1.13-.76 1.23 1.23 0 0 0 -.26-1.36l-5.97-6.09a1.6848 1.6848 0 0 0 -2.34 0l-5.97 6.09a1.23 1.23 0 0 0 -.26 1.36 1.2036 1.2036 0 0 0 1.13.76zm3.0776.3386a.5025.5025 0 0 1 .6543.269 2.7494 2.7494 0 0 0 5.0762 0 .5.5 0 0 1 .9238.3848 3.7506 3.7506 0 0 1 -6.9238 0 .5007.5007 0 0 1 .2695-.6538z"/></svg>