<svg viewBox="0 0 64 64" xmlns="http://www.w3.org/2000/svg"><g id="Pizza"><circle cx="32" cy="32" fill="#f97c15" r="31"/><path d="m32 32-15.5 26.85a30.98 30.98 0 0 1 -15.5-26.85z" fill="#f97c15"/><path d="m63 32h-31l15.5-26.85a30.98 30.98 0 0 1 15.5 26.85z" fill="#ff9c39"/><path d="m32 32h-31a30.98 30.98 0 0 1 15.5-26.85z" fill="#ff9c39"/><path d="m63 32a30.98 30.98 0 0 1 -15.5 26.85l-15.5-26.85z" fill="#f97c15"/><path d="m47.5 58.85a31.02065 31.02065 0 0 1 -31 0l15.5-26.85z" fill="#ff9c39"/><path d="m56.77 28.08a10.07345 10.07345 0 0 0 -.77 3.92h-24l12.22-21.18a10.29324 10.29324 0 0 0 1.89 1.76 9.93713 9.93713 0 0 0 3.63 1.68 10.34244 10.34244 0 0 0 4.61 6.35 9.872 9.872 0 0 0 .48 3.97 10.232 10.232 0 0 0 1.94 3.5z" fill="#ffe088"/><path d="m32 32h-24a10.07345 10.07345 0 0 0 -.77-3.92 10.232 10.232 0 0 0 1.94-3.5 9.872 9.872 0 0 0 .48-3.97 10.01167 10.01167 0 0 0 2.93-2.72 9.93713 9.93713 0 0 0 1.68-3.63 9.93713 9.93713 0 0 0 3.63-1.68 10.29324 10.29324 0 0 0 1.89-1.76z" fill="#ffe088"/><path d="m44.22 10.82-12.22 21.18-12.22-21.18a10.00253 10.00253 0 0 0 .83-1.17 9.872 9.872 0 0 0 3.97-.48 10.232 10.232 0 0 0 3.5-1.94 10.07345 10.07345 0 0 0 3.92.77 10.07345 10.07345 0 0 0 3.92-.77 10.232 10.232 0 0 0 3.5 1.94 9.872 9.872 0 0 0 3.97.48 10.00253 10.00253 0 0 0 .83 1.17z" fill="#ffc751"/><path d="m32 32-12.22 21.18a10.29324 10.29324 0 0 0 -1.89-1.76 9.93713 9.93713 0 0 0 -3.63-1.68 9.93713 9.93713 0 0 0 -1.68-3.63 10.01167 10.01167 0 0 0 -2.93-2.72 9.872 9.872 0 0 0 -.48-3.97 10.232 10.232 0 0 0 -1.94-3.5 10.07345 10.07345 0 0 0 .77-3.92z" fill="#ffc751"/><path d="m44.22 53.18a10.00253 10.00253 0 0 0 -.83 1.17 9.872 9.872 0 0 0 -3.97.48 10.232 10.232 0 0 0 -3.5 1.94 10.36283 10.36283 0 0 0 -7.84 0 10.232 10.232 0 0 0 -3.5-1.94 9.872 9.872 0 0 0 -3.97-.48 10.00253 10.00253 0 0 0 -.83-1.17l12.22-21.18z" fill="#ffe088"/><path d="m54.83 39.42a9.872 9.872 0 0 0 -.48 3.97 10.34244 10.34244 0 0 0 -4.61 6.35 9.93713 9.93713 0 0 0 -3.63 1.68 10.29324 10.29324 0 0 0 -1.89 1.76l-12.22-21.18h24a10.07345 10.07345 0 0 0 .77 3.92 10.232 10.232 0 0 0 -1.94 3.5z" fill="#ffc751"/><circle cx="40" cy="46" fill="#e54242" r="4"/><path d="m42.04962 49.41827-3.98132-6.90057a3.9845 3.9845 0 1 0 3.98132 6.90057z" fill="#f75e5e"/><circle cx="30" cy="49" fill="#f75e5e" r="3"/><circle cx="19" cy="42" fill="#e54242" r="3"/><circle cx="34" cy="15" fill="#e54242" r="3"/><circle cx="48" cy="25" fill="#f75e5e" r="3"/><circle cx="48" cy="39" fill="#e54242" r="3"/><circle cx="24" cy="18" fill="#e54242" r="4"/><path d="m25.94 21.5a3.99876 3.99876 0 0 1 -3.99-6.93z" fill="#f75e5e"/><path d="m13 28a4 4 0 0 1 8 0z" fill="#f75e5e"/><g fill="#2a2b35"><path d="m64 32a32 32 0 1 0 -32 32 32.0532 32.0532 0 0 0 32-32zm-2.02539-1h-4.92084a8.79091 8.79091 0 0 1 .63764-2.53125.99938.99938 0 0 0 -.16114-1.03809 9.20318 9.20318 0 0 1 -1.75146-3.167 8.92251 8.92251 0 0 1 -.43262-3.56689 1.00036 1.00036 0 0 0 -.48047-.94385 9.33968 9.33968 0 0 1 -4.15039-5.71484 1.00093 1.00093 0 0 0 -.75342-.75342 8.97305 8.97305 0 0 1 -3.26562-1.51466 9.43966 9.43966 0 0 1 -1.23853-1.07916l2.393-4.14484a30.005 30.005 0 0 1 14.12385 24.454zm-6.3457 4.74268a11.22107 11.22107 0 0 0 -1.74756 3.36084 11.01582 11.01582 0 0 0 -.5625 3.76074 11.43753 11.43753 0 0 0 -4.39795 6.05664 11.12529 11.12529 0 0 0 -3.39746 1.689 11.58568 11.58568 0 0 0 -1.09662.91358l-1.06622-1.84672a4.96156 4.96156 0 0 0 -4.86188-8.421l-4.76648-8.25576h21.31067a10.91973 10.91973 0 0 0 .586 2.74268zm-47.25782-7.48536a11.22107 11.22107 0 0 0 1.74756-3.36084 11.01582 11.01582 0 0 0 .5625-3.76074 11.04837 11.04837 0 0 0 2.70655-2.65574 11.1273 11.1273 0 0 0 1.6914-3.40088 11.12529 11.12529 0 0 0 3.39746-1.689 11.58568 11.58568 0 0 0 1.09662-.91358l1.06622 1.84668a4.96156 4.96156 0 0 0 4.86188 8.421l4.76648 8.25578h-21.31067a10.91973 10.91973 0 0 0 -.586-2.74268zm46.67182 2.74268h-21.31067l10.69446-18.52332a11.55565 11.55565 0 0 0 1.09332.911 11.1273 11.1273 0 0 0 3.40088 1.6914 11.12529 11.12529 0 0 0 1.689 3.39746 11.05434 11.05434 0 0 0 2.709 2.65918 10.99458 10.99458 0 0 0 .55957 3.752 11.23808 11.23808 0 0 0 1.75049 3.36962 10.91973 10.91973 0 0 0 -.58605 2.74266zm-23.04291-1.00031-4.75171-8.23016a4.96543 4.96543 0 0 0 -4.8902-8.47l-1.386-2.40064c.05316-.07354.11242-.14288.16363-.21771a10.92079 10.92079 0 0 0 3.752-.55957 11.23808 11.23808 0 0 0 3.36962-1.75049 11.4974 11.4974 0 0 0 7.48536 0 11.22107 11.22107 0 0 0 3.36084 1.74756 11.03132 11.03132 0 0 0 3.76074.5625c.05121.07483.11047.14417.16363.21771zm-10.32141-13.87652 2.78841 4.82965a2.96766 2.96766 0 0 1 -.467.04718 3.00328 3.00328 0 0 1 -3-3 2.97031 2.97031 0 0 1 .67859-1.87683zm4.54523 3.87189-2.84546-4.92847a2.98764 2.98764 0 0 1 2.84546 4.92847zm-17.26673 13.00494h21.31067l-10.69446 18.52332a11.55565 11.55565 0 0 0 -1.09332-.911 11.1273 11.1273 0 0 0 -3.40088-1.6914 11.43814 11.43814 0 0 0 -4.39795-6.05664 10.99458 10.99458 0 0 0 -.55957-3.752 11.23808 11.23808 0 0 0 -1.75049-3.36962 10.91973 10.91973 0 0 0 .586-2.74266zm23.04291 1.00031 4.75171 8.23016a4.96543 4.96543 0 0 0 4.8902 8.47l1.386 2.40064c-.05316.07354-.11242.14288-.16363.21771a11.111 11.111 0 0 0 -3.752.55957 11.23808 11.23808 0 0 0 -3.36962 1.75049 11.45091 11.45091 0 0 0 -7.48536 0 11.22107 11.22107 0 0 0 -3.36084-1.74756 11.018 11.018 0 0 0 -3.76074-.5625c-.05121-.07483-.11047-.14417-.16363-.21771zm10.32141 13.87652-2.78841-4.82965a2.96766 2.96766 0 0 1 .467-.04718 3.00328 3.00328 0 0 1 3 3 2.97031 2.97031 0 0 1 -.67859 1.87683zm-4.54523-3.87189 2.84546 4.92847a2.98764 2.98764 0 0 1 -2.84546-4.92847zm8.34528-38.46423-1.99139 3.44916a.98612.98612 0 0 0 -.82685-.33606 8.9306 8.9306 0 0 1 -3.57568-.43555 9.18909 9.18909 0 0 1 -3.1582-1.74853.99811.99811 0 0 0 -1.03809-.16114 9.40025 9.40025 0 0 1 -7.0625 0 1.0033 1.0033 0 0 0 -1.03809.16114 9.20318 9.20318 0 0 1 -3.167 1.75146 8.91627 8.91627 0 0 1 -3.56689.43262.99292.99292 0 0 0 -.8266.33649l-1.99163-3.44959a29.93076 29.93076 0 0 1 28.24292 0zm-29.97223 1.00529 2.39295 4.14478a9.46646 9.46646 0 0 1 -1.24189 1.08166 8.96663 8.96663 0 0 1 -3.2622 1.51221 1.00093 1.00093 0 0 0 -.75342.75342 8.97305 8.97305 0 0 1 -1.51467 3.26564 8.9621 8.9621 0 0 1 -2.63574 2.44922 1.00036 1.00036 0 0 0 -.48047.94385 8.93411 8.93411 0 0 1 -.43555 3.57568 9.18909 9.18909 0 0 1 -1.74853 3.1582.99938.99938 0 0 0 -.16114 1.03809 8.791 8.791 0 0 1 .63772 2.53125h-4.9209a30.005 30.005 0 0 1 14.12384-24.454zm-14.12384 26.454h4.9209a8.791 8.791 0 0 1 -.6377 2.53125.99938.99938 0 0 0 .16114 1.03809 9.20318 9.20318 0 0 1 1.75146 3.167 8.92251 8.92251 0 0 1 .43262 3.56689 1.00036 1.00036 0 0 0 .48047.94385 8.96725 8.96725 0 0 1 2.63818 2.45264 8.96663 8.96663 0 0 1 1.51221 3.2622 1.00093 1.00093 0 0 0 .75342.75342 8.97305 8.97305 0 0 1 3.26562 1.51466 9.43926 9.43926 0 0 1 1.23853 1.0791l-2.393 4.1449a30.005 30.005 0 0 1 -14.12385-24.454zm15.85315 25.45929 1.99146-3.44929a.99536.99536 0 0 0 .82678.33618 8.95907 8.95907 0 0 1 3.57568.43555 9.18909 9.18909 0 0 1 3.1582 1.74853 1.00162 1.00162 0 0 0 1.03809.16114 9.40025 9.40025 0 0 1 7.0625 0 .99969.99969 0 0 0 1.03809-.16114 9.20318 9.20318 0 0 1 3.167-1.75146 8.95841 8.95841 0 0 1 3.56689-.43262.98828.98828 0 0 0 .82691-.33594l1.99133 3.449a29.93076 29.93076 0 0 1 -28.24292 0zm29.97223-1.00529-2.39295-4.1448a9.46646 9.46646 0 0 1 1.24189-1.08166 8.96663 8.96663 0 0 1 3.2622-1.51221 1.00093 1.00093 0 0 0 .75342-.75342 9.33925 9.33925 0 0 1 4.15039-5.71484 1.00036 1.00036 0 0 0 .48047-.94385 8.93411 8.93411 0 0 1 .43555-3.57568 9.18909 9.18909 0 0 1 1.74853-3.1582.99938.99938 0 0 0 .16114-1.03809 8.79091 8.79091 0 0 1 -.63764-2.53125h4.92084a30.005 30.005 0 0 1 -14.12384 24.454z"/><path d="m30 53a4 4 0 1 0 -4-4 4.00458 4.00458 0 0 0 4 4zm0-6a2 2 0 1 1 -2 2 2.002 2.002 0 0 1 2-2z"/><path d="m15 42a4 4 0 1 0 4-4 4.00458 4.00458 0 0 0 -4 4zm4-2a2 2 0 1 1 -2 2 2.002 2.002 0 0 1 2-2z"/><path d="m34 11a4 4 0 1 0 4 4 4.00458 4.00458 0 0 0 -4-4zm0 6a2 2 0 1 1 2-2 2.002 2.002 0 0 1 -2 2z"/><path d="m34.16211 20.05713a.99974.99974 0 0 0 -1.27588.60986 2.01794 2.01794 0 0 1 -1.21923 1.21924 1 1 0 1 0 .666 1.88574 3.98209 3.98209 0 0 0 2.439-2.439.99975.99975 0 0 0 -.60989-1.27584z"/><path d="m48 21a4 4 0 1 0 4 4 4.00458 4.00458 0 0 0 -4-4zm0 6a2 2 0 1 1 2-2 2.002 2.002 0 0 1 -2 2z"/><path d="m46 19a1 1 0 0 0 0-2 4.00551 4.00551 0 0 0 -2.981 1.333 1 1 0 0 0 1.49024 1.334 2.00363 2.00363 0 0 1 1.49076-.667z"/><path d="m48 43a4 4 0 1 0 -4-4 4.00458 4.00458 0 0 0 4 4zm0-6a2 2 0 1 1 -2 2 2.002 2.002 0 0 1 2-2z"/><path d="m41 39a1 1 0 0 0 1-1 2.00363 2.00363 0 0 1 .667-1.49072 1 1 0 0 0 -1.334-1.49028 4.00551 4.00551 0 0 0 -1.333 2.981 1 1 0 0 0 1 1z"/><path d="m13 39a1 1 0 0 0 1-1 2.002 2.002 0 0 1 2-2 1 1 0 0 0 0-2 4.00458 4.00458 0 0 0 -4 4 1 1 0 0 0 1 1z"/><path d="m17 23a5.00588 5.00588 0 0 0 -5 5 1 1 0 0 0 1 1h8a1 1 0 0 0 1-1 5.00588 5.00588 0 0 0 -5-5zm-2.82861 4a3.00026 3.00026 0 0 1 5.65722 0z"/><circle cx="24" cy="37" r="1"/><circle cx="25" cy="28" r="1"/><circle cx="41" cy="24" r="1"/><circle cx="32" cy="41" r="1"/><circle cx="39" cy="28" r="1"/></g></g></svg>