<svg id="Layer_1" enable-background="new 0 0 512 512" viewBox="0 0 512 512" xmlns="http://www.w3.org/2000/svg"><g clip-rule="evenodd" fill-rule="evenodd"><g><g><path d="m238.269 152.337h242.073c2.2 0 4 1.8 4 4v36.748c0 2.2-1.8 4-4 4h-242.073c-2.2 0-4-1.8-4-4v-36.748c0-2.201 1.8-4 4-4z" fill="#fc685b"/><path d="m238.269 152.337h242.073c2.2 0 4 1.8 4 4v6h-236.073c-2.2 0-4 1.8-4 4v30.748h-6c-2.2 0-4-1.8-4-4v-36.748c0-2.201 1.8-4 4-4z" fill="#f35244"/><path d="m238.269 63.307h242.073c2.2 0 4 1.8 4 4v36.748c0 2.2-1.8 4-4 4h-242.073c-2.2 0-4-1.8-4-4v-36.749c0-2.2 1.8-3.999 4-3.999z" fill="#ffda2d"/><path d="m238.269 63.307h242.073c2.2 0 4 1.8 4 4v6h-236.073c-2.2 0-4 1.8-4 4v30.748h-6c-2.2 0-4-1.8-4-4v-36.749c0-2.2 1.8-3.999 4-3.999z" fill="#ffc700"/><path d="m27.657 454.093v-403.681c0-24.977 20.435-45.412 45.412-45.412h345.266c11.09 0 20.135 9.048 20.135 20.135v384.051z" fill="#ffde9b"/><path d="m27.657 454.093v-2.186l390.813-42.72v-384.052c0-11.087-9.045-20.135-20.135-20.135h20c11.09 0 20.135 9.048 20.135 20.135v384.051z" fill="#ffc781"/><path d="m27.657 50.412v403.681l50.405-5.51v-443.583h-4.994c-24.976 0-45.411 20.435-45.411 45.412z" fill="#ffc781"/><path d="m27.657 452.448v1.645l50.405-5.51v-443.583h-4.994c-3.453 0-6.818.392-10.055 1.131v442.452z" fill="#ffb961"/><path d="m137.23 315.446h242.073c2.2 0 4 1.8 4 4v36.748c0 2.2-1.8 4-4 4h-242.073c-2.2 0-4-1.8-4-4v-36.748c0-2.2 1.8-4 4-4z" fill="#eff4f7"/><path d="m137.23 315.446h242.073c2.2 0 4 1.8 4 4v6h-236.073c-2.2 0-4 1.8-4 4v30.748h-6c-2.2 0-4-1.8-4-4v-36.748c0-2.2 1.8-4 4-4z" fill="#e2e3e3"/><path d="m72.564 409.186h365.906c-10 29.938-10 59.876 0 89.814h-365.906c-24.698 0-44.907-20.208-44.907-44.907s20.208-44.907 44.907-44.907z" fill="#eff4f7"/><path d="m418.47 409.186h20c-10 29.938-10 59.876 0 89.814h-20c-10-29.938-10-59.876 0-89.814z" fill="#e2e3e3"/></g><g><path d="m335.213 275.196h-153.893c-4.404 0-8-3.594-8-8v-82.287c-22.049 0-40.089-18.04-40.089-40.089 0-22.05 18.039-40.089 40.089-40.089h15.142c0-38.391 31.411-69.804 69.803-69.804 38.393 0 69.804 31.411 69.804 69.804h15.142c22.05 0 40.089 18.04 40.089 40.088 0 22.05-18.039 40.09-40.089 40.09v82.287c.002 4.405-3.595 8-7.998 8z" fill="#eff4f7"/><path d="m335.213 247.227h-15.072c4.405 0 7.999-3.594 7.999-8v-54.319c22.05 0 40.089-18.039 40.089-40.089 0-22.049-18.039-40.089-40.089-40.089h15.072c22.05 0 40.089 18.04 40.089 40.089 0 22.05-18.039 40.089-40.089 40.089v54.319c0 4.406-3.594 8-7.999 8zm-84.483-211.889c34.882 3.789 62.268 33.545 62.268 69.392h15.072c0-38.392-31.411-69.804-69.804-69.804-2.546.001-5.06.143-7.536.412z" fill="#e2e3e3"/><path d="m172.463 104.742c.285-.006.571-.011.857-.011h15.142v23.487c0 4.418-3.582 8-8 8s-8-3.582-8-8v-23.476zm155.677-.011h15.072c.31 0 .619.005.927.012v23.475c0 4.418-3.582 8-8 8s-8-3.582-8-8v-23.487z" fill="#e2e3e3"/><path d="m344.14 108.084c-4.908-2.154-10.32-3.354-16-3.354h15.072c.31 0 .619.005.928.012z" fill="#d8d8d8"/><path d="m181.32 275.196h153.893c4.359 0 7.999-3.548 7.999-8v-24.338h-169.892v24.338c0 4.435 3.624 8 8 8z" fill="#64b5f6"/><path d="m320.141 275.196h15.072c4.359 0 7.999-3.548 7.999-8v-24.338h-15.072v24.338c0 4.406-3.594 8-7.999 8z" fill="#42a5f5"/></g></g><path d="m173.321 116.731h7.169v15.489c0 4.41 3.585 8.001 7.971 8.001 4.433 0 8.018-3.591 8.018-8.001v-23.49c0-34.08 27.733-61.809 61.785-61.809 34.1 0 61.832 27.729 61.832 61.809v23.49c0 4.41 3.585 8.001 7.971 8.001 4.433 0 8.018-3.591 8.018-8.001v-15.489h7.122c17.734 0 32.119 14.389 32.119 32.09 0 17.688-14.385 32.088-32.119 32.088-4.386 0-7.971 3.581-7.971 8.001v49.939h-153.897v-49.939c0-4.42-3.584-8.001-8.018-8.001-17.686 0-32.072-14.4-32.072-32.088 0-17.701 14.386-32.09 32.072-32.09zm8.018 154.46v-16.34h153.897v16.34zm-15.989-74.951v74.951c0 8.819 7.169 15.999 15.989 15.999h153.897c8.82 0 15.989-7.18 15.989-15.999v-74.951c22.733-3.819 40.09-23.631 40.09-47.419 0-26.521-21.554-48.091-48.108-48.091h-7.546c-4.009-39.159-37.166-69.81-77.397-69.81-40.184 0-73.388 30.651-77.397 69.81h-7.546c-26.506 0-48.061 21.57-48.061 48.091 0 23.789 17.357 43.6 40.09 47.419zm-24.101 131.202h234.077v28.75h-234.077zm-4.009 44.748h242.094c6.603 0 11.98-5.38 11.98-11.999v-36.751c0-6.619-5.377-11.999-11.98-11.999h-242.094c-6.603 0-11.98 5.38-11.98 11.999v36.752c0 6.619 5.377 11.998 11.98 11.998zm39.901 72.891c0-4.422 3.584-8.001 8.018-8.001h22.545c4.386 0 8.018 3.579 8.018 8.001 0 4.409-3.632 8-8.018 8h-22.545c-4.433 0-8.018-3.591-8.018-8zm299.211-280.75v28.75h-29.855v-28.75zm0-89.031v28.75h-29.855v-28.75zm-403.774 419.7h355.194c-.943-3.559-1.698-7.119-2.358-10.689h-330.905c-4.433 0-8.018-3.58-8.018-8s3.584-7.999 8.018-7.999h328.877c-.377-5.081-.472-10.161-.283-15.231h-163.707c-4.433 0-8.018-3.591-8.018-8 0-4.422 3.585-8.001 8.018-8.001h165.169c.802-5.31 1.839-10.611 3.207-15.9h-355.194c-20.328 0-36.93 16.561-36.93 36.909 0 20.352 16.602 36.911 36.93 36.911zm-36.93-440.59c0-19.617 15.187-35.738 34.43-37.28v388.111c-13.347.63-25.422 6.22-34.43 14.98zm394.813-25.277c0-6.693-5.424-12.131-12.121-12.131h-332.273v388.18h344.394zm49.9 90.918c6.603 0 11.98-5.382 11.98-12.001v-36.749c0-6.611-5.377-12-11.98-12h-33.864v-30.168c0-15.512-12.64-28.134-28.157-28.134h-345.243c-29.478 0-53.437 23.96-53.437 53.411v403.371.309c0 29.171 23.771 52.911 52.918 52.911h365.901c2.594 0 4.999-1.24 6.509-3.331 1.509-2.089 1.887-4.77 1.085-7.209-9.385-28.111-9.385-56.63 0-84.741.283-.82.425-1.678.425-2.538v-204.1h33.864c6.603 0 11.98-5.382 11.98-12.001v-36.749c0-6.61-5.377-11.999-11.98-11.999h-33.864v-28.28h33.863z"/></g></svg>